<?xml version="1.0" standalone="no"?><!DOCTYPE svg PUBLIC "-//W3C//DTD SVG 1.1//EN" "http://www.w3.org/Graphics/SVG/1.1/DTD/svg11.dtd"><svg t="1784979276456" class="icon" viewBox="0 0 1024 1024" version="1.1" xmlns="http://www.w3.org/2000/svg" p-id="9433" xmlns:xlink="http://www.w3.org/1999/xlink" width="200" height="200"><path d="M288 158.2c34.8 0 67.5 13.5 92.1 38.1 24.6 24.6 38.1 57.3 38.1 92.1v130.2H288c-34.8 0-67.5-13.5-92.1-38.1-24.6-24.6-38.1-57.3-38.1-92.1 0-34.9 13.5-67.7 38-92.2s57.3-38 92.2-38m0-60c-105.4 0-190.2 84.9-190.2 190.2 0 105.1 85.2 190.2 190.2 190.2h178.2c6.6 0 12-5.4 12-12V288.5C478.2 183.4 393 98.2 288 98.2zM418.2 607.8v128.5c0 34.9-13.7 68-38.5 93.1-24.7 25-57.3 38.8-91.8 38.8h-1c-34.4-0.3-66.7-13.8-91.1-38.1-24.3-24.3-37.9-56.7-38.1-91.1-0.3-34.3 13.2-67 37.9-91.8 12.3-12.4 26.6-22.1 42.5-28.9 16.4-7 33.7-10.5 51.6-10.5h128.5m48-60H289.7c-105.4 0-192.7 86.3-191.9 191.7 0.8 103.9 84.9 188 188.8 188.8h1.4c104.8 0 190.3-87 190.3-191.9V559.8c-0.1-6.6-5.5-12-12.1-12zM737.6 158.2c34.7 0 67.4 13.5 92 38.1 24.6 24.5 38.2 57.2 38.2 91.9 0.1 34.1-13.5 66.5-38.2 91.3-12.3 12.3-26.5 22-42.4 28.7-16.3 6.9-33.5 10.5-51.2 10.5H607.4V288.5c0-34.8 13.5-67.5 38.1-92.1s57.3-38.2 92.1-38.2m0-60c-105.1 0-190.2 85.2-190.2 190.2v178.2c0 6.6 5.4 12 12 12H736c104.8 0 192-85.8 191.9-190.6-0.3-104.8-85.4-189.8-190.3-189.8zM735.9 607.8c17.8 0 35.2 3.5 51.6 10.5 15.9 6.8 30.2 16.5 42.5 28.9 24.7 24.9 38.1 57.5 37.9 91.8-0.3 34.4-13.8 66.7-38.1 91.1-24.3 24.3-56.7 37.9-91.1 38.1h-1c-34.4 0-67-13.8-91.8-38.8-24.8-25.1-38.5-58.2-38.5-93.1V607.8h128.5m0-60H559.4c-6.6 0-12 5.4-12 12v176.5c0 105 85.5 191.9 190.3 191.9h1.4c103.9-0.8 188-84.9 188.8-188.8 0.7-105.3-86.6-191.6-192-191.6z" p-id="9434"></path></svg>