<svg width="393" height="108" viewBox="0 0 393 108" fill="none" xmlns="http://www.w3.org/2000/svg">
<g clip-path="url(#clip0_689_281)">
<path d="M48.9392 21.8496C51.4164 21.4018 53.8939 21.071 56.4128 21.167C58.9606 21.2472 61.4654 21.8456 63.7742 22.9258C65.364 23.6653 66.8109 24.6798 68.0486 25.9219C68.3032 26.1776 68.5522 26.1842 68.8455 26.0215C69.7389 25.5257 70.6376 25.0463 71.6531 24.8281C72.5357 24.6366 73.4489 24.6263 74.3357 24.7979C76.1696 25.1538 77.9129 25.8622 79.7468 26.2432C80.4483 26.3883 81.1363 26.5053 81.8513 26.4844C82.0152 26.4791 82.2379 26.4187 82.3152 26.6201C82.3924 26.8215 82.1689 26.8708 82.0603 26.9678C80.9914 27.9271 79.8677 28.8152 78.7195 29.6816C77.3029 30.761 75.9009 31.8652 74.4968 32.9561C74.1149 33.2524 73.7328 33.548 73.3435 33.834C73.0525 34.0427 72.9889 34.2945 73.0818 34.6504C73.4283 35.9749 73.6503 37.3185 73.6326 38.6973C73.6231 39.384 73.0834 39.7411 72.7097 40.1523C71.4018 41.5885 69.8597 42.7924 68.1492 43.7129C66.7953 44.4614 65.3724 44.9935 63.8943 45.4268C65.5175 45.5253 67.1442 45.3019 68.6804 44.7686C70.2055 44.2299 71.5418 43.3789 72.8728 42.501C72.9583 42.4446 73.0366 42.3487 73.1482 42.3965C73.3099 42.4622 73.2405 42.6052 73.2185 42.7158C73.0097 43.7325 72.8183 44.7566 72.4519 45.7295C71.9456 47.0751 71.4082 48.4068 70.7078 49.6709C69.6869 51.5257 68.434 53.2138 67.1355 54.8818C65.6334 56.8108 63.8326 58.4431 62.1072 60.1445C60.9307 61.3043 59.6109 62.3216 58.281 63.3164C57.4909 63.9061 56.7383 64.5491 55.9148 65.0908C55.3283 65.478 55.2597 65.4393 55.1511 64.7705C54.9568 63.5361 54.509 62.355 53.8367 61.3018C53.6593 61.5387 53.7072 61.7461 53.7458 61.9277C54.0068 63.1626 53.9322 64.3863 53.7683 65.6338C53.6639 66.427 53.4959 67.1992 53.3279 67.9736C52.9542 69.7043 52.1999 71.2851 51.322 72.8018C50.655 73.95 49.8603 75.0299 48.8279 75.8994C48.5242 76.1541 48.2316 76.4211 47.8005 76.4482C46.8006 76.4993 46.2562 75.9843 46.0955 74.7881C45.9597 73.7798 45.6066 72.8498 45.1765 71.9375C44.9751 71.5106 44.6992 71.5062 44.3308 71.6982C42.9007 72.4425 41.4757 73.1961 40.032 73.9102C38.4296 74.7025 36.8687 75.5743 35.3425 76.4961C33.9856 77.3186 32.6506 78.2254 31.5974 79.4404C30.5693 80.6262 29.7937 81.9686 29.4148 83.5176C29.0161 85.1533 29.3324 86.7106 29.9441 88.2148C31.0245 90.8768 33.132 92.4868 35.6853 93.5547C36.4432 93.8678 37.2766 94.1345 38.1628 93.957C39.0917 93.7701 39.606 93.173 39.7605 92.2305C40.0214 90.6345 40.0368 88.9943 40.6746 87.4619C41.4857 85.5133 42.8976 84.1865 44.7869 83.3232C44.9247 83.2606 45.095 83.2741 45.239 83.2188C45.6022 83.081 45.6693 83.2913 45.6746 83.5742C45.6907 83.8692 45.6907 84.1649 45.6746 84.46C45.5389 85.9433 46.0367 87.2451 46.7361 88.5176C47.4219 89.764 48.0245 91.0588 47.9734 92.5391C47.95 93.5498 47.6054 94.527 46.99 95.3291C46.8668 95.4909 46.7734 95.6758 46.6335 95.9033C47.5675 95.8904 48.4842 96.1583 49.2644 96.6719C50.2674 97.3274 50.9345 98.2606 51.447 99.3242C52.0618 100.595 52.3796 101.97 52.8796 103.28C53.2381 104.228 53.874 105.045 54.7048 105.625C54.9856 105.828 55.2572 106.043 55.5203 106.271C55.8332 106.544 55.8199 106.803 55.4421 107.002C54.5235 107.495 53.5188 107.662 52.4968 107.737C50.2694 107.902 48.2474 107.228 46.3748 106.105C45.5804 105.629 44.8725 104.997 44.1658 104.39C43.0249 103.41 41.953 102.339 40.6169 101.618C39.4823 101.005 38.2816 100.607 36.9705 100.527C35.7679 100.454 34.5692 100.251 33.3708 100.154C32.3446 100.055 31.3241 99.9008 30.3142 99.6934C27.465 99.1398 24.6833 98.2808 22.0183 97.1309C20.1134 96.3187 18.3328 95.2879 16.6042 94.1699C15.6095 93.5269 14.6905 92.7637 13.7615 92.0205C13.0549 91.4538 12.4159 90.8185 11.7615 90.209C10.9874 89.4657 10.2577 88.6774 9.57593 87.8486C8.69641 86.8016 7.8834 85.7 7.14233 84.5508C6.26029 83.1938 5.55171 81.7542 4.86694 80.2949C3.80218 78.0234 3.0847 75.6463 2.57007 73.1963C2.20999 71.4689 2.03417 69.7217 1.81812 67.9775C1.52896 65.634 1.77593 63.3261 2.02124 61.0254C2.17158 59.6153 2.49233 58.207 2.85034 56.8115C3.32245 54.9475 3.93162 53.1207 4.67358 51.3467C5.50792 49.3811 6.51748 47.4945 7.69019 45.71C8.88854 43.8801 10.2475 42.1752 11.6755 40.5186C13.3948 38.5227 15.3489 36.7759 17.4001 35.1475C19.0336 33.831 20.7448 32.6139 22.5232 31.501C24.3698 30.3621 26.2456 29.2763 28.2029 28.3389C30.8552 27.0593 33.5825 25.9414 36.3699 24.9912C38.6194 24.2313 40.8994 23.5989 43.198 23.0186C45.0936 22.5394 47.0123 22.1982 48.9392 21.8496ZM27.7 45.9902C26.7145 45.6416 25.0523 46.1996 24.9041 47.5713C24.8331 48.2279 24.7283 48.8793 24.7273 49.54C24.7203 52.1476 24.7184 54.7537 24.7205 57.3584H24.7332C24.7332 60.0724 24.7233 62.7794 24.74 65.4902C24.74 66.221 24.9546 66.8998 25.5642 67.3779C26.4441 68.0667 27.3638 68.0943 28.4597 67.4033C30.965 65.8198 33.4605 64.2094 35.9617 62.6133C37.8052 61.4379 39.6468 60.2564 41.5007 59.0967C43.3118 57.9651 43.4371 55.9278 41.6052 54.7617C41.0353 54.3995 40.4702 54.0304 39.8982 53.665C36.4692 51.4907 33.0559 49.2913 29.6248 47.1201C28.9985 46.7235 28.4212 46.245 27.7 45.9902ZM14.7117 15.0469C14.9831 14.7963 15.1476 14.8819 15.2332 15.1982C15.469 16.1178 15.7037 17.0372 15.9187 17.9609C16.3035 19.6115 16.6798 21.2633 17.0486 22.916C17.367 24.3503 17.6558 25.7913 17.9773 27.2256C18.0817 27.6786 18.2984 28.1025 18.2712 28.5889C18.2732 28.7093 18.2443 28.8284 18.1873 28.9346C18.1302 29.0407 18.0466 29.1305 17.9451 29.1953C16.7803 29.9771 15.7075 30.8824 14.5886 31.7236C13.5224 32.5487 12.5111 33.4427 11.5613 34.3994C10.6667 35.2773 9.80309 36.2136 8.96069 37.1572C8.22174 37.9849 7.55147 38.8625 6.88452 39.7393C5.94717 40.9777 5.08772 42.274 4.31128 43.6191C3.71111 44.6535 3.10529 45.6866 2.6189 46.7773C1.79527 48.6219 1.1208 50.4982 0.440186 52.4043C0.0372512 50.7216 -0.0269436 48.9739 0.00854492 47.2432C0.0196797 46.406 0.0562632 45.5689 0.118896 44.7324C0.495573 39.7082 1.68694 34.7785 3.64624 30.1367C4.71828 27.5981 6.06778 25.2305 7.60327 22.958C9.06369 20.8243 10.7259 18.8358 12.5662 17.0195C13.2499 16.3337 13.9946 15.7076 14.7117 15.0469ZM55.8982 35.165C54.5965 35.165 53.4724 36.2911 53.5027 37.6074C53.5382 39.1094 54.5326 40.1016 56.0095 40.0527C57.3666 40.1571 58.4458 39.0266 58.4646 37.6602C58.4832 36.25 57.3585 35.164 55.8982 35.165ZM25.2957 7.93555C25.7684 7.68619 25.928 7.74901 26.0408 8.28027C26.1368 8.73633 26.2544 9.19244 26.3337 9.64746C26.5352 10.8062 26.8913 11.9268 27.1199 13.0771C27.2952 13.9595 27.485 14.8385 27.6882 15.7139C28.0212 17.1429 28.4192 18.5599 28.7 19.9941C28.8586 20.8122 29.155 21.598 29.2146 22.4297C29.2365 22.7793 29.1329 23.0208 28.7761 23.168C26.8011 23.9801 24.913 24.9685 23.0632 26.0322C22.7031 26.241 22.3099 26.3774 21.9675 26.6279C21.5199 26.9544 21.3049 26.8614 21.1765 26.3096C20.9792 25.4672 20.8201 24.6149 20.6228 23.7725C20.2053 21.9739 19.7573 20.1794 19.3367 18.3809C19.1405 17.5387 18.9918 16.6859 18.7957 15.8447C18.5618 14.8364 18.2394 13.8497 18.0974 12.8174C18.0588 12.5377 18.1052 12.3621 18.3357 12.1982C20.1755 10.8948 22.0879 9.69642 24.0632 8.60938C24.4735 8.3839 24.8823 8.15372 25.2957 7.93555ZM79.8591 19.5986C81.2255 19.1373 82.6183 19.258 83.9919 19.6504C85.6015 20.1097 87.2281 20.3916 88.9128 20.1475C89.323 20.088 89.748 20.1154 90.1541 20.0215C90.2771 19.9933 90.4596 19.9595 90.5193 20.126C90.5788 20.2929 90.4153 20.3736 90.3171 20.457C89.553 21.0761 88.751 21.6589 88.0203 22.3145C86.3523 23.8122 84.5101 25.0487 82.1941 25.1084C81.8535 25.1163 81.5121 25.1059 81.1726 25.0771C80.0966 24.9842 79.0445 24.7226 78.0154 24.4043C77.0489 24.1058 76.0955 23.6476 75.0779 23.5566C74.9464 23.5452 74.8228 23.4517 74.6902 23.4131C74.4074 23.3379 74.4112 23.2378 74.6033 23.0332C76.0761 21.4592 77.8196 20.2866 79.8591 19.5986ZM36.115 3.31348C36.4282 3.1976 36.6464 3.20933 36.7341 3.59766C36.9961 4.76041 37.2702 5.92143 37.5447 7.08105C37.9622 8.84612 38.3796 10.6113 38.7595 12.3857C39.2146 14.513 39.7836 16.6152 40.198 18.7529C40.2512 19.0264 40.1885 19.1299 39.9412 19.2051C38.8368 19.5401 37.7065 19.788 36.6189 20.1836C35.432 20.6147 34.2246 20.9904 33.0398 21.4268C32.6067 21.5863 32.4218 21.4495 32.3279 21.0498C31.8602 19.0519 31.3891 17.0537 30.9246 15.0537C30.4329 12.9348 29.922 10.818 29.4773 8.68652C29.3259 7.94331 29.0827 7.21849 28.9773 6.46484C28.9575 6.21657 29.091 6.09874 29.3005 5.99023C30.3058 5.46829 31.3817 5.12304 32.4246 4.69922C33.6415 4.20454 34.8845 3.77581 36.115 3.31348ZM97.9265 13.5801C98.0569 13.5372 98.2084 13.4216 98.3054 13.5635C98.427 13.7438 98.2305 13.8618 98.1189 13.9316C97.4082 14.3742 96.9028 15.0493 96.24 15.5576C95.4895 16.1348 94.7936 16.7898 94.0056 17.3242C93.4759 17.691 92.9142 18.0101 92.3279 18.2773C91.4118 18.67 90.4356 18.9051 89.4412 18.9727C88.6493 19.0325 87.8527 19.0038 87.0671 18.8877C85.9359 18.7228 84.8327 18.4244 83.7087 18.2188C83.4938 18.1801 83.212 18.1312 83.1335 17.9404C83.0615 17.7651 83.328 17.6414 83.4617 17.5225C84.7873 16.3053 86.2512 15.2638 87.8962 14.5498C89.2293 13.9715 90.666 13.8728 92.1316 14.0273C93.664 14.186 95.2099 14.253 96.7371 13.9482C97.1421 13.8679 97.533 13.7095 97.9265 13.5801ZM49.323 0.000976562C50.1359 0.314183 50.3965 1.02416 50.575 1.78711C50.934 3.31954 51.3057 4.85018 51.6501 6.38574C51.8651 7.3251 52.0373 8.28407 52.2585 9.22656C52.6761 10.9928 53.0828 12.7639 53.5515 14.5166C53.7132 15.1261 53.6326 15.769 53.238 16.2627C52.8686 16.726 52.3448 16.8437 51.7771 16.9199C49.1674 17.2748 46.5635 17.662 43.9998 18.2549C43.6002 18.3466 43.5208 18.1845 43.4509 17.8789C43.168 16.6336 42.876 15.3942 42.5837 14.1416C42.1056 12.0886 41.6267 10.0354 41.1472 7.98242C40.761 6.33312 40.368 4.68557 39.988 3.03418C39.8076 2.24966 39.8725 2.17258 40.6394 1.94824C43.1625 1.21126 45.7341 0.656606 48.2781 0L49.323 0.000976562ZM105.439 4.77637C105.761 4.65012 106.104 4.5568 106.457 4.61523C106.959 4.69875 107.129 5.03223 106.899 5.48828C106.785 5.722 106.641 5.94021 106.47 6.13672C105.364 7.37618 104.186 8.54954 102.941 9.65039C101.688 10.7663 100.457 11.7981 98.8416 12.3398C98.0407 12.6061 97.2132 12.7848 96.3738 12.873C96.021 12.9106 95.6674 12.9317 95.3132 12.9365C94.2506 12.9511 93.1982 12.7437 92.1345 12.7197H91.9255C91.8637 12.7234 91.8023 12.7057 91.7517 12.6699C91.7011 12.6341 91.6642 12.5821 91.6472 12.5225C91.5992 12.3607 91.7445 12.3195 91.8406 12.2559C92.8781 11.5638 93.9281 10.8862 95.0105 10.2725C96.6065 9.3654 98.1743 8.40304 99.8015 7.55859C101.661 6.59195 103.485 5.54676 105.439 4.77637Z" fill="url(#paint0_linear_689_281)"/>
<path d="M173.692 65L164.522 60.03C160.275 57.7433 157.218 56.1333 155.352 55.2C155.538 59.26 155.982 63.0867 156.682 66.68C157.008 68.4067 157.498 70.0633 158.152 71.65C158.805 73.2367 159.528 74.4267 160.322 75.22C160.975 75.8267 161.862 76.13 162.982 76.13C163.775 76.13 164.615 75.99 165.502 75.71C166.995 75.29 168.698 74.6133 170.612 73.68C172.525 72.7467 174.275 71.79 175.862 70.81L174.952 78.93C173.598 79.77 172.105 80.54 170.472 81.24C168.885 81.94 167.368 82.4767 165.922 82.85C164.382 83.27 163.028 83.48 161.862 83.48C160.135 83.48 158.595 82.99 157.242 82.01C156.355 81.3567 155.585 80.68 154.932 79.98C154.325 79.28 153.765 78.44 153.252 77.46C152.085 75.3133 150.988 72.0467 149.962 67.66C149.122 63.7867 148.585 58.7233 148.352 52.47C148.258 48.55 148.212 45.47 148.212 43.23C148.212 38.89 148.235 35.6 148.282 33.36H120.912L121.402 26.57H150.032C151.852 26.57 153.135 26.9433 153.882 27.69C154.768 28.67 155.212 30.3033 155.212 32.59L155.142 37.14C155.095 38.0267 155.072 39.31 155.072 40.99C163.145 37.07 169.748 33.5467 174.882 30.42L173.972 38.61C171.685 40.01 168.722 41.6433 165.082 43.51C162.422 44.8633 159.108 46.4267 155.142 48.2C160.788 50.9533 167.228 54.2667 174.462 58.14L173.692 65Z" fill="#CED7E2"/>
<path d="M250.06 30.07L249.36 35.95H216.67L217.37 30.07H230.11L228.15 23.63H234.87L236.97 30.07H250.06ZM212.05 69.27H188.6L191.75 43.86H187.41C189.743 40.1267 191.703 36.8367 193.29 33.99C194.97 30.91 196.603 27.62 198.19 24.12H204.56L202.53 28.6H207.64C211.093 28.6 212.82 29.7433 212.82 32.03C212.82 32.9167 212.587 33.85 212.12 34.83L209.81 39.59C213.217 39.73 214.92 41.4567 214.92 44.77C214.92 45.33 214.897 45.7733 214.85 46.1L212.05 69.27ZM206.52 33.92H199.8L196.72 39.59H203.79L206.52 33.92ZM244.88 59.96H234.87L232.7 79.35C232.513 81.0767 231.86 82.2667 230.74 82.92C229.667 83.62 228.243 83.8767 226.47 83.69C225.07 83.55 223.88 83.3633 222.9 83.13C221.92 82.9433 220.893 82.64 219.82 82.22L220.59 76.48C222.13 77.04 223.74 77.4833 225.42 77.81L225.77 77.88C226.237 77.88 226.517 77.6 226.61 77.04L228.71 59.96H216.46L218.42 45.19C218.607 43.51 219.213 42.25 220.24 41.41C221.267 40.5233 222.667 40.1267 224.44 40.22H241.1C245.16 40.22 246.98 42.2267 246.56 46.24L244.88 59.96ZM201.06 44.98H196.65L195.81 51.77H200.29L201.06 44.98ZM209.04 51.77L209.81 44.98H205.68L204.84 51.77H209.04ZM223.04 54.57H239.56L240.61 45.61H224.16L223.04 54.57ZM199.66 56.88H195.25L194.41 63.95H198.82L199.66 56.88ZM204.21 56.88L203.3 63.95H207.64L208.41 56.88H204.21ZM211.28 78.93L218.84 63.39H224.51L217.65 78.93H211.28ZM242.29 63.46L247.68 79.42H241.73L236.62 63.46H242.29ZM211.07 77.67C207.85 78.1833 203.72 78.7667 198.68 79.42C193.92 80.0267 189.79 80.47 186.29 80.75L187.2 75.08C191.54 74.6133 195.553 74.1467 199.24 73.68C204.14 73.0733 208.317 72.4667 211.77 71.86L211.07 77.67Z" fill="#CED7E2"/>
<path d="M295.35 41.13C299.13 38.33 302.467 35.46 305.36 32.52C307.647 30.0933 309.677 27.5967 311.45 25.03H318.8C316.187 28.95 313.48 32.4267 310.68 35.46C307.927 38.4933 304.847 41.3633 301.44 44.07L295.35 41.13ZM295.98 48.2L295.42 53.1H259.23L259.86 48.2H274.56L273.86 44.91H263.01L264.97 29.51C265.157 28.25 265.623 27.27 266.37 26.57C267.117 25.87 268.167 25.52 269.52 25.52H290.03C291.43 25.52 292.527 25.8933 293.32 26.64C294.113 27.3867 294.51 28.4367 294.51 29.79C294.51 30.2567 294.487 30.6067 294.44 30.84L292.69 44.91H280.09L280.93 48.2H295.98ZM288.28 30.21H270.92L270.57 33.29H287.93L288.28 30.21ZM270.15 37.14L269.8 40.22H287.16L287.51 37.14H270.15ZM294.02 59.82C301.16 54.08 306.643 48.3167 310.47 42.53H317.68C313.293 49.9967 307.413 56.74 300.04 62.76L294.02 59.82ZM291.01 69.13H279.53L278.34 79.98C278.2 81.2867 277.757 82.29 277.01 82.99C276.263 83.7367 275.237 84.11 273.93 84.11C271.457 84.11 269.03 83.6667 266.65 82.78L267.07 77.39C268.657 77.8567 270.173 78.1833 271.62 78.37L271.9 78.44C272.227 78.44 272.437 78.2067 272.53 77.74L273.51 69.13H261.33L262.52 59.68C262.707 58.4667 263.173 57.5333 263.92 56.88C264.667 56.2267 265.693 55.9 267 55.9H287.72C289.12 55.9 290.193 56.25 290.94 56.95C291.733 57.6033 292.13 58.5833 292.13 59.89C292.13 60.3567 292.107 60.7067 292.06 60.94L291.01 69.13ZM282.47 70.95H288.07L292.2 79.56C299.76 74.0533 306.153 67.17 311.38 58.91H318.73C315.277 64.5567 311.8 69.2933 308.3 73.12C304.567 77.2733 300.367 81.0533 295.7 84.46L289.61 81.38L291.92 79.77H286.04L282.47 70.95ZM285.97 60.52H268.33L267.84 64.51H285.41L285.97 60.52ZM256.64 80.68L262.87 71.16H268.96L263.29 80.68H256.64Z" fill="#CED7E2"/>
<path d="M352.4 38.82C350.393 42.7867 348.107 46.3333 345.54 49.46C348.433 51.9333 351.07 54.5 353.45 57.16L348.76 61.22C346.847 58.7467 345.19 56.81 343.79 55.41L340.36 84.32H333.78L336.93 58.07C333.803 60.4967 331.377 62.27 329.65 63.39L325.38 58.35C329.533 56.0633 333.383 53.1467 336.93 49.6C340.197 46.3333 342.81 42.7867 344.77 38.96C344.957 38.5867 345.05 38.2833 345.05 38.05C345.05 37.8633 344.933 37.7233 344.7 37.63C344.467 37.5367 344.093 37.49 343.58 37.49H331.26L331.96 31.33H339.87L337.84 24.12H344.56L346.59 31.33H348.13C349.857 31.33 351.163 31.68 352.05 32.38C352.937 33.0333 353.38 33.9667 353.38 35.18C353.38 36.16 353.053 37.3733 352.4 38.82ZM382.5 26.22C384.32 26.22 385.72 26.71 386.7 27.69C387.68 28.6233 388.17 29.9533 388.17 31.68C388.17 32.1933 388.147 32.59 388.1 32.87L384.67 61.92H378.02L381.38 32.38H363.6L360.1 62.13H353.52L357.09 31.68C357.37 29.8133 357.977 28.4367 358.91 27.55C359.843 26.6633 361.337 26.22 363.39 26.22H382.5ZM373.54 49.32C373.027 52.4933 372.327 55.48 371.44 58.28H376.34L374.52 76.13V76.48C374.52 77.0867 374.847 77.39 375.5 77.39H378.3C381.94 77.39 385.417 76.5033 388.73 74.73L387.89 81.73C386.677 82.29 385.16 82.7567 383.34 83.13C381.52 83.5033 379.653 83.69 377.74 83.69H372.84C371.113 83.69 369.83 83.27 368.99 82.43C368.197 81.6367 367.8 80.4 367.8 78.72C367.8 78.1133 367.823 77.6467 367.87 77.32L369.27 63.88C367.217 68.36 364.697 72.35 361.71 75.85C358.723 79.3033 355.433 82.1967 351.84 84.53L345.33 81.45C351.443 77.39 356.273 72.7933 359.82 67.66C363.6 62.1067 366.003 55.7833 367.03 48.69L368.64 36.72H375.36L373.54 49.32Z" fill="#CED7E2"/>
</g>
<defs>
<linearGradient id="paint0_linear_689_281" x1="53.4999" y1="0" x2="53.4999" y2="107.762" gradientUnits="userSpaceOnUse">
<stop stop-color="#2A9DFD"/>
<stop offset="1" stop-color="#2A80FE"/>
</linearGradient>
<clipPath id="clip0_689_281">
<rect width="393" height="108" fill="white"/>
</clipPath>
</defs>
</svg>
